<?xml version="1.0" encoding="utf-8"?>
<!-- Generator: Adobe Illustrator 27.0.0, SVG Export Plug-In . SVG Version: 6.00 Build 0)  -->
<svg version="1.1" id="Layer_1" xmlns="http://www.w3.org/2000/svg" x="0px"
     y="0px"
     viewBox="0 0 12 12" style="enable-background:new 0 0 12 12;" xml:space="preserve">
<style type="text/css">
	.st0{fill:#3ABFF8;}
</style>
    <path class="st0" d="M11.4,3h-0.2V1.9C11.2,0.8,8.9,0,6,0S0.8,0.8,0.8,1.9V3H0.6C0.3,3,0,3.3,0,3.6v1.9C0,5.7,0.3,6,0.6,6h0.2v3.8
	c0,0.4,0.3,0.8,0.8,0.8v0.8c0,0.4,0.3,0.8,0.8,0.8H3c0.4,0,0.8-0.3,0.8-0.8v-0.8h4.5v0.8C8.2,11.7,8.6,12,9,12h0.8
	c0.4,0,0.8-0.3,0.8-0.8v-0.8h0.1c0.4,0,0.6-0.3,0.6-0.6V6h0.2C11.7,6,12,5.7,12,5.4V3.6C12,3.3,11.7,3,11.4,3z M2.6,9.4
	C2.2,9.4,1.9,9,1.9,8.6c0-0.4,0.3-0.8,0.8-0.8s0.8,0.3,0.8,0.8C3.4,9,3,9.4,2.6,9.4z M3,6.7C2.6,6.7,2.2,6.4,2.2,6V3
	c0-0.4,0.3-0.8,0.8-0.8h6c0.4,0,0.8,0.3,0.8,0.8v3c0,0.4-0.3,0.8-0.8,0.8H3z M9.4,9.4C9,9.4,8.6,9,8.6,8.6c0-0.4,0.3-0.8,0.8-0.8
	s0.8,0.3,0.8,0.8C10.1,9,9.8,9.4,9.4,9.4z"/>
</svg>
