<?xml version="1.0" encoding="utf-8"?>
<!-- Generator: Adobe Illustrator 27.0.0, SVG Export Plug-In . SVG Version: 6.00 Build 0)  -->
<svg version="1.1" id="Layer_1" xmlns="http://www.w3.org/2000/svg" x="0px"
     y="0px"
     viewBox="0 0 12 12" style="enable-background:new 0 0 12 12;" xml:space="preserve">
<style type="text/css">
	.st0{fill:#060522;}
	.st1{display:none;fill:#3A682E;}
	.st2{display:none;fill:#2BD4BD;}
	.st3{fill:#2BD4BD;}
	.st4{opacity:0.6;}
	.st5{fill:none;stroke:#2BD4BD;stroke-width:0.15;stroke-miterlimit:10;}
	.st6{fill:none;}
	.st7{fill-rule:evenodd;clip-rule:evenodd;fill:#3ABFF8;}
</style>
    <g id="Layer_2_00000133516757093122471160000006050477926452432054_">
	<path class="st0"
          d="M6.1,1.2C3.4,1.2,1.2,3.3,1.2,6c0,2.6,2.2,4.8,4.8,4.8c2.7,0,4.8-2.2,4.8-4.8C10.9,3.3,8.7,1.2,6.1,1.2z"/>
        <path class="st1" d="M11,5.9L11,5.9L11,5.9h-0.3V5h0.2l0,0h-0.2V4.3V4.2V5H9.9v-1h0.8l0,0H9.9v-1h0.4l0,0H9.9V2.7l0,0v0.5H8.9v-1
		h0.5l0,0H8.9V1.9l0,0v0.4H8V1.4l0,0v0.9H7.1v-1H8H7.9H7.1V1.1l0,0v0.2H6.2V1l0,0l0,0v0.3H5.3V1.1l0,0v0.2H4.5H4.4h0.8v0.9H4.4V1.3
		l0,0v0.9H3.5V1.9l0,0v0.3H3.1l0,0h0.5V3h-1V2.6l0,0V3H2.3l0,0h0.4v0.9H1.7l0,0h0.8v0.9H1.7V4.2v0.1V5H1.5l0,0h0.2v0.9H1.4l0,0l0,0
		h0.3v0.9H1.5l0,0h0.2v0.7v0.1V6.9h0.8v0.9H1.7l0,0h0.8v0.9H2.3l0,0h0.3v0.5l0,0V8.7h0.8v0.9H3l0,0h0.4v0.3l0,0V9.6h0.8v0.9l0,0V9.6
		h0.8v0.9H4.4h0.1h0.7v0.2l0,0v-0.2h0.9v0.3l0,0l0,0v-0.3H7v0.2l0,0v-0.2h0.7h0.1H7.1V9.6H8v0.9l0,0V9.6h0.8v0.3l0,0V9.6h0.5l0,0
		H8.9v-1h0.8v0.5l0,0V8.7h0.3l0,0H9.9V7.8h0.8l0,0H9.9v-1h0.8v0.9V7.6V6.9h0.2l0,0h-0.2v-1H11L11,5.9z M2.6,6.9H1.7v-1h0.8V6.9z
		 M2.6,5.9H1.7V5h0.8V5.9z M3.5,8.7H2.6V7.8h0.8v0.9H3.5z M3.5,7.7H2.6V6.9h0.8v0.9H3.5z M3.5,6.9H2.6v-1h0.8v1H3.5z M3.5,5.9H2.6V5
		h0.8v0.9H3.5z M3.5,4.9H2.6V4.1h0.8v0.9H3.5z M3.5,4.1H2.6v-1h0.8v1H3.5z M4.3,9.6H3.5v-1h0.8C4.3,8.7,4.3,9.6,4.3,9.6z M4.3,8.7
		H3.5V7.8h0.8C4.3,7.8,4.3,8.7,4.3,8.7z M4.3,7.7H3.5V6.9h0.8C4.3,6.9,4.3,7.7,4.3,7.7z M4.3,6.9H3.5v-1h0.8
		C4.3,5.9,4.3,6.9,4.3,6.9z M4.3,5.9H3.5V5h0.8C4.3,5,4.3,5.9,4.3,5.9z M4.3,4.9H3.5V4.1h0.8C4.3,4.1,4.3,4.9,4.3,4.9z M4.3,4.1H3.5
		v-1h0.8C4.3,3.1,4.3,4.1,4.3,4.1z M4.3,3.1H3.5V2.3h0.8C4.3,2.3,4.3,3.1,4.3,3.1z M5.3,9.6H4.4v-1h0.8C5.3,8.7,5.3,9.6,5.3,9.6z
		 M5.3,8.7H4.4V7.8h0.8C5.3,7.8,5.3,8.7,5.3,8.7z M5.3,7.7H4.4V6.9h0.8C5.3,6.9,5.3,7.7,5.3,7.7z M5.3,6.9H4.4v-1h0.8
		C5.3,5.9,5.3,6.9,5.3,6.9z M5.3,5.9H4.4V5h0.8C5.3,5,5.3,5.9,5.3,5.9z M5.3,4.9H4.4V4.1h0.8C5.3,4.1,5.3,4.9,5.3,4.9z M5.3,4.1H4.4
		v-1h0.8C5.3,3.1,5.3,4.1,5.3,4.1z M5.3,3.1H4.4V2.3h0.8C5.3,2.3,5.3,3.1,5.3,3.1z M6.2,10.5H5.3V9.6h0.9V10.5z M6.2,9.6H5.3v-1h0.9
		V9.6z M6.2,8.7H5.3V7.8h0.9V8.7z M6.2,7.7H5.3V6.9h0.9V7.7z M6.2,6.9H5.3v-1h0.9V6.9z M6.2,5.9H5.3V5h0.9V5.9z M6.2,4.9H5.3V4.1
		h0.9V4.9z M6.2,4.1H5.3v-1h0.9V4.1z M6.2,3.1H5.3V2.3h0.9V3.1z M6.2,2.2H5.3V1.3h0.9V2.2z M7,10.5H6.2V9.6H7V10.5z M7,9.6H6.2v-1H7
		V9.6z M7,8.7H6.2V7.8H7V8.7z M7,7.7H6.2V6.9H7V7.7z M7,6.9H6.2v-1H7V6.9z M7,5.9H6.2V5H7V5.9z M7,4.9H6.2V4.1H7V4.9z M7,4.1H6.2v-1
		H7V4.1z M7,3.1H6.2V2.3H7V3.1z M7,2.2H6.2V1.3H7V2.2z M8,9.6H7.1v-1H8C8,8.7,8,9.6,8,9.6z M8,8.7H7.1V7.8H8C8,7.8,8,8.7,8,8.7z
		 M8,7.7H7.1V6.9H8C8,6.9,8,7.7,8,7.7z M8,6.9H7.1v-1H8C8,5.9,8,6.9,8,6.9z M8,5.9H7.1V5H8C8,5,8,5.9,8,5.9z M8,4.9H7.1V4.1H8
		C8,4.1,8,4.9,8,4.9z M8,4.1H7.1v-1H8C8,3.1,8,4.1,8,4.1z M8,3.1H7.1V2.3H8C8,2.3,8,3.1,8,3.1z M8.9,9.6H8v-1h0.8v1H8.9z M8.9,8.7H8
		V7.8h0.8v0.9H8.9z M8.9,7.7H8V6.9h0.8v0.9H8.9z M8.9,6.9H8v-1h0.8v1H8.9z M8.9,5.9H8V5h0.8v0.9H8.9z M8.9,4.9H8V4.1h0.8v0.9H8.9z
		 M8.9,4.1H8v-1h0.8v1H8.9z M8.9,3.1H8V2.3h0.8v0.9H8.9z M9.7,8.7H8.9V7.8h0.8C9.7,7.8,9.7,8.7,9.7,8.7z M9.7,7.7H8.9V6.9h0.8
		C9.7,6.9,9.7,7.7,9.7,7.7z M9.7,6.9H8.9v-1h0.8C9.7,5.9,9.7,6.9,9.7,6.9z M9.7,5.9H8.9V5h0.8C9.7,5,9.7,5.9,9.7,5.9z M9.7,4.9H8.9
		V4.1h0.8C9.7,4.1,9.7,4.9,9.7,4.9z M9.7,4.1H8.9v-1h0.8C9.7,3.1,9.7,4.1,9.7,4.1z M10.7,6.9H9.9v-1h0.8V6.9z M10.7,5.9H9.9V5h0.8
		V5.9z"/>
        <path class="st2" d="M11,5.9h-0.8c0-2.2-1.8-4-4-4V1l0,0l0,0v0.9c-2.2,0-4,1.8-4,4H1.4l0,0l0,0h0.8c0,2.2,1.8,4,4,4v0.9l0,0l0,0
		V9.9c2.2,0,4-1.8,4-4H11L11,5.9L11,5.9z M6.2,9.9c-2.2,0-4-1.8-4-4h0.9c0,1.7,1.4,3,3,3.1V9.9z M6.2,9C4.5,8.9,3.3,7.6,3.3,5.9h0.8
		C4.1,7.1,5.1,8,6.2,8V9z M6.2,8c-1.1-0.1-2-1-2.1-2.1H5c0,0.6,0.5,1.2,1.2,1.3V8L6.2,8z M6.2,7.2C5.6,7.1,5.1,6.5,5.1,5.9h0.7
		c0,0.2,0.2,0.4,0.4,0.4V7.2z M6.2,6.3C6,6.3,5.8,6.1,5.8,5.9h0.4V6.3z M6.2,5.9H5.8c0-0.2,0.2-0.3,0.4-0.4V5.9z M6.2,5.5
		c-0.3,0-0.4,0.2-0.4,0.4H5.1c0-0.6,0.5-1.2,1.1-1.2V5.5z M6.2,4.6C5.5,4.6,5,5.3,5,5.9H4.1c0-1.1,0.9-2,2-2v0.7H6.2z M6.2,3.8
		c-1.1,0-2.1,1-2.1,2.1H3.3c0-1.6,1.4-3,2.9-3V3.8L6.2,3.8z M6.2,2.8c-1.7,0-3,1.4-3,3.1H2.3C2.3,3.7,4,2,6.1,2v0.9H6.2z M6.2,2.9
		c1.6,0,2.9,1.4,2.9,3H8.3c0-1.2-0.9-2.1-2.1-2.1V2.9L6.2,2.9z M6.2,3.9c1.1,0,2,1,2,2H7.5c0-0.6-0.5-1.2-1.2-1.3V3.9L6.2,3.9z
		 M6.2,4.7c0.6,0,1.1,0.5,1.1,1.2H6.6c0-0.2-0.2-0.4-0.4-0.4V4.7L6.2,4.7z M6.2,5.5c0.2,0,0.3,0.2,0.4,0.4H6.2V5.5z M6.2,5.9h0.4
		c0,0.2-0.2,0.3-0.4,0.4V5.9L6.2,5.9z M6.2,6.4c0.2,0,0.4-0.2,0.4-0.4h0.7c0,0.6-0.5,1.2-1.1,1.2V6.4L6.2,6.4z M6.2,7.2
		c0.6,0,1.1-0.5,1.2-1.3h0.8c0,1.1-0.9,2-2,2V7.2H6.2z M6.2,8c1.1,0,2.1-1,2.1-2.1h0.8c0,1.6-1.4,3-2.9,3V8L6.2,8z M6.2,9.9V9
		c1.7,0,3-1.4,3-3.1h0.9C10.1,8.1,8.4,9.9,6.2,9.9z M9.2,5.9c0-1.7-1.4-3-3-3.1V2c2.2,0,3.9,1.8,3.9,3.9H9.2z"/>
        <path class="st3" d="M7.6,1.4L6.2,5.9l1.6-4.4C7.7,1.5,7.6,1.5,7.6,1.4z"/>
        <g class="st4">
		<path class="st3" d="M6.2,1.1v4.8l1.5-4.6C7.2,1.2,6.7,1.1,6.2,1.1z"/>
	</g>
        <g>
		<ellipse class="st3" cx="8.7" cy="4" rx="0.4" ry="0.4"/>
            <ellipse class="st3" cx="4" cy="3.2" rx="0.4" ry="0.4"/>
	</g>
        <ellipse class="st5" cx="6" cy="6" rx="2.7" ry="2.8"/>
        <ellipse class="st5" cx="6" cy="6" rx="3.4" ry="3.5"/>
</g>
    <g id="Layer_1_00000122696222875989946080000012525760652388853432_">
	<g>
		<path class="st6" d="M12,0v12H0V0H12z M6.3,11.6L6.3,11.6L6.3,11.6L6.3,11.6L6.3,11.6L6.3,11.6C6.2,11.6,6.2,11.6,6.3,11.6
			L6.3,11.6l-0.1,0.2l0,0l0,0h0.1l0,0l0,0h0.1l0,0l0,0L6.3,11.6L6.3,11.6z M6.4,11.6L6.4,11.6L6.4,11.6l-0.1,0.1l0,0v0.2l0,0l0,0
			h0.1l0,0l0,0V11.6L6.4,11.6z M6.1,11.6L6.1,11.6L6.1,11.6v0.3l0,0l0,0h0.1l0,0l0,0L6.1,11.6L6.1,11.6L6.1,11.6
			C6.2,11.6,6.1,11.6,6.1,11.6z"/>
        <path class="st7" d="M6,1c2.8,0,5,2.2,5,5s-2.2,5-5,5S1,8.8,1,6S3.2,1,6,1z M2.1,6.9c0.4,1.5,1.6,2.7,3.1,3
			c-0.1-1.3-0.5-2.1-1-2.5C3.6,7,2.9,6.8,2.1,6.9L2.1,6.9z M7.8,7.4c-0.5,0.4-1,1.2-1.1,2.5c1.5-0.3,2.8-1.5,3.1-3
			C9.1,6.8,8.4,7,7.8,7.4L7.8,7.4z M6,2C4.1,2,2.4,3.4,2.1,5.3v0.1l1.1-0.2C3.4,5.1,3.7,4.9,4,4.7l0.2-0.2C4.7,4.3,5.3,4,6,4
			s1.3,0.3,1.7,0.5L8,4.7C8.3,4.9,8.5,5,8.8,5.1h0.1L10,5.4C9.6,3.4,8,2,6,2z"/>
	</g>
</g>
</svg>
