<?xml version="1.0" encoding="utf-8"?>
<!-- Generator: Adobe Illustrator 27.0.0, SVG Export Plug-In . SVG Version: 6.00 Build 0)  -->
<svg version="1.1" xmlns="http://www.w3.org/2000/svg" x="0px" y="0px"
     viewBox="0 0 12 12" style="enable-background:new 0 0 12 12;" xml:space="preserve">
<style type="text/css">
	.st0{fill:#060522;}
	.st1{display:none;fill:#3A682E;}
	.st2{fill:#294C22;}
	.st3{fill:#2BD4BD;}
	.st4{opacity:0.6;}
	.st5{fill:none;}
	.st6{fill-rule:evenodd;clip-rule:evenodd;fill:#3ABFF8;}
</style>
    <g id="Layer_2">
	<path class="st0" d="M6,1C3.2,1,1,3.3,1,6c0,2.8,2.2,5,5,5c2.8,0,5-2.2,5-5C11,3.3,8.7,1,6,1z"/>
        <path class="st1" d="M11,6C11,6,11,6,11,6C11,6,11,6,11,6l-0.3,0V5.1h0.2c0,0,0,0,0,0h-0.2V4.3c0,0,0-0.1,0-0.1v0.8H9.8V4.2h0.9
		c0,0,0,0,0,0H9.8V3.2h0.4c0,0,0,0,0,0H9.8V2.7c0,0,0,0,0,0v0.5H8.8V2.3h0.5c0,0,0,0,0,0H8.8V1.9c0,0,0,0,0,0v0.4H7.9V1.4
		c0,0,0,0,0,0v0.9H6.9V1.4h0.9c0,0-0.1,0-0.1,0H6.9V1.1c0,0,0,0,0,0v0.2H6V1c0,0,0,0,0,0c0,0,0,0,0,0v0.3H5.1V1.1c0,0,0,0,0,0v0.2
		H4.3c0,0-0.1,0-0.1,0H5v0.9H4.1V1.4c0,0,0,0,0,0v0.9H3.2V1.9c0,0,0,0,0,0v0.4H2.7c0,0,0,0,0,0h0.5v0.9H2.3V2.7c0,0,0,0,0,0v0.5H1.9
		c0,0,0,0,0,0h0.4v0.9H1.4c0,0,0,0,0,0h0.9v0.9H1.3V4.2c0,0,0,0.1,0,0.1v0.7H1.1c0,0,0,0,0,0h0.2V6H1c0,0,0,0,0,0c0,0,0,0,0,0h0.3
		v0.9H1.1c0,0,0,0,0,0h0.2v0.7c0,0,0,0.1,0,0.1V7h0.9v0.9H1.4c0,0,0,0,0,0h0.9v0.9H1.9c0,0,0,0,0,0h0.3v0.4c0,0,0,0,0,0V8.8h0.9v0.9
		H2.7c0,0,0,0,0,0h0.4v0.3c0,0,0,0,0,0V9.8h0.9v0.9c0,0,0,0,0,0V9.8H5v0.9H4.2c0,0,0.1,0,0.1,0H5v0.2c0,0,0,0,0,0v-0.2H6V11
		c0,0,0,0,0,0c0,0,0,0,0,0v-0.3h0.9v0.2c0,0,0,0,0,0v-0.2h0.7c0,0,0.1,0,0.1,0H6.9V9.8h0.9v0.9c0,0,0,0,0,0V9.8h0.9v0.4c0,0,0,0,0,0
		V9.8h0.4c0,0,0,0,0,0H8.8V8.8h0.9v0.5c0,0,0,0,0,0V8.8h0.3c0,0,0,0,0,0H9.8V7.9h0.9c0,0,0,0,0,0H9.8V7h0.9v0.8c0,0,0-0.1,0-0.1V7
		h0.2c0,0,0,0,0,0h-0.2V6L11,6L11,6z M2.2,6.9H1.3V6h0.9V6.9z M2.2,6H1.3V5.1h0.9V6z M3.2,8.8H2.3V7.9h0.9V8.8z M3.2,7.9H2.3V7h0.9
		V7.9z M3.2,6.9H2.3V6h0.9V6.9z M3.2,6H2.3V5.1h0.9V6z M3.2,5.1H2.3V4.2h0.9V5.1z M3.2,4.1H2.3V3.2h0.9V4.1z M4.1,9.7H3.2V8.8h0.9
		V9.7z M4.1,8.8H3.2V7.9h0.9V8.8z M4.1,7.9H3.2V7h0.9V7.9z M4.1,6.9H3.2V6h0.9V6.9z M4.1,6H3.2V5.1h0.9V6z M4.1,5.1H3.2V4.2h0.9V5.1
		z M4.1,4.1H3.2V3.2h0.9V4.1z M4.1,3.2H3.2V2.3h0.9V3.2z M5,9.7H4.1V8.8H5V9.7z M5,8.8H4.1V7.9H5V8.8z M5,7.9H4.1V7H5V7.9z M5,6.9
		H4.1V6H5V6.9z M5,6H4.1V5.1H5V6z M5,5.1H4.1V4.2H5V5.1z M5,4.1H4.1V3.2H5V4.1z M5,3.2H4.1V2.3H5V3.2z M6,10.7H5.1V9.8H6V10.7z
		 M6,9.7H5.1V8.8H6V9.7z M6,8.8H5.1V7.9H6V8.8z M6,7.9H5.1V7H6V7.9z M6,6.9H5.1V6H6V6.9z M6,6H5.1V5.1H6V6z M6,5.1H5.1V4.2H6V5.1z
		 M6,4.1H5.1V3.2H6V4.1z M6,3.2H5.1V2.3H6V3.2z M6,2.3H5.1V1.4H6V2.3z M6.9,10.7H6V9.8h0.9V10.7z M6.9,9.7H6V8.8h0.9V9.7z M6.9,8.8
		H6V7.9h0.9V8.8z M6.9,7.9H6V7h0.9V7.9z M6.9,6.9H6V6h0.9V6.9z M6.9,6H6V5.1h0.9V6z M6.9,5.1H6V4.2h0.9V5.1z M6.9,4.1H6V3.2h0.9V4.1
		z M6.9,3.2H6V2.3h0.9V3.2z M6.9,2.3H6V1.4h0.9V2.3z M7.8,9.7H6.9V8.8h0.9V9.7z M7.8,8.8H6.9V7.9h0.9V8.8z M7.8,7.9H6.9V7h0.9V7.9z
		 M7.8,6.9H6.9V6h0.9V6.9z M7.8,6H6.9V5.1h0.9V6z M7.8,5.1H6.9V4.2h0.9V5.1z M7.8,4.1H6.9V3.2h0.9V4.1z M7.8,3.2H6.9V2.3h0.9V3.2z
		 M8.8,9.7H7.9V8.8h0.9V9.7z M8.8,8.8H7.9V7.9h0.9V8.8z M8.8,7.9H7.9V7h0.9V7.9z M8.8,6.9H7.9V6h0.9V6.9z M8.8,6H7.9V5.1h0.9V6z
		 M8.8,5.1H7.9V4.2h0.9V5.1z M8.8,4.1H7.9V3.2h0.9V4.1z M8.8,3.2H7.9V2.3h0.9V3.2z M9.7,8.8H8.8V7.9h0.9V8.8z M9.7,7.9H8.8V7h0.9
		V7.9z M9.7,6.9H8.8V6h0.9V6.9z M9.7,6H8.8V5.1h0.9V6z M9.7,5.1H8.8V4.2h0.9V5.1z M9.7,4.1H8.8V3.2h0.9V4.1z M10.6,6.9H9.8V6h0.9
		V6.9z M10.6,6H9.8V5.1h0.9V6z"/>
        <g>
		<path class="st2" d="M5.6,6c0,0.2,0.2,0.4,0.4,0.4V6H5.6z"/>
            <path class="st2" d="M5.6,6H6V5.6C5.8,5.6,5.6,5.8,5.6,6z"/>
            <path class="st2" d="M6,6v0.4c0.2,0,0.4-0.2,0.4-0.4H6z"/>
            <path class="st2" d="M6,5.6V6h0.4C6.4,5.8,6.2,5.6,6,5.6z"/>
	</g>
        <path class="st3" d="M11,6h-0.9c0-2.3-1.8-4.1-4.1-4.1V1c0,0,0,0,0,0c0,0,0,0,0,0v0.9C3.7,1.9,1.9,3.7,1.9,6H1c0,0,0,0,0,0
		c0,0,0,0,0,0h0.9c0,2.3,1.8,4.1,4.1,4.1V11c0,0,0,0,0,0c0,0,0,0,0,0v-0.9c2.3,0,4.1-1.8,4.1-4.1L11,6C11,6,11,6,11,6
		C11,6,11,6,11,6z M6,10.1c-2.2,0-4-1.8-4-4h0.9c0,1.7,1.4,3.1,3.1,3.1V10.1z M6,9.1c-1.7,0-3-1.4-3-3h0.9c0,1.2,1,2.1,2.1,2.1V9.1z
		 M6,8.1C4.8,8.1,3.9,7.2,3.9,6h0.8c0,0.7,0.6,1.2,1.3,1.3L6,8.1L6,8.1z M6,7.2C5.3,7.2,4.8,6.7,4.8,6h0.8c0,0.2,0.2,0.4,0.4,0.4
		V7.2z M6,6.4C5.8,6.4,5.6,6.3,5.6,6H6V6.4z M6,6H5.6c0-0.2,0.2-0.4,0.4-0.4V6z M6,5.5C5.7,5.6,5.5,5.8,5.5,6H4.8
		c0-0.7,0.5-1.2,1.2-1.2V5.5z M6,4.7C5.3,4.7,4.7,5.3,4.7,6H3.9c0-1.1,0.9-2.1,2.1-2.1V4.7L6,4.7z M6,3.9c-1.2,0-2.1,1-2.1,2.1H2.9
		c0-1.7,1.4-3,3-3L6,3.9L6,3.9z M6,2.9C4.3,2.9,2.9,4.3,2.9,6H1.9c0-2.2,1.8-4,4-4V2.9z M6,3c1.7,0,3,1.4,3,3H8.2
		c0-1.2-1-2.1-2.1-2.1L6,3L6,3z M6,3.9c1.1,0,2.1,0.9,2.1,2.1H7.3c0-0.7-0.6-1.2-1.3-1.3L6,3.9L6,3.9z M6,4.8c0.7,0,1.2,0.5,1.2,1.2
		H6.5c0-0.2-0.2-0.4-0.4-0.4L6,4.8L6,4.8z M6,5.6c0.2,0,0.4,0.2,0.4,0.4H6V5.6z M6,6h0.4c0,0.2-0.2,0.4-0.4,0.4V6L6,6z M6,6.5
		c0.2,0,0.4-0.2,0.4-0.4h0.8c0,0.7-0.5,1.2-1.2,1.2L6,6.5L6,6.5z M6,7.3c0.7,0,1.2-0.6,1.3-1.3h0.8c0,1.1-0.9,2.1-2.1,2.1V7.3z
		 M6,8.2c1.2,0,2.1-1,2.1-2.1h0.9c0,1.7-1.4,3-3,3L6,8.2L6,8.2z M6,10.1V9.1c1.7,0,3.1-1.4,3.1-3.1h0.9C10.1,8.3,8.2,10.1,6,10.1z
		 M9.1,6c0-1.7-1.4-3.1-3.1-3.1V2c2.2,0,4,1.8,4,4H9.1z"/>
        <path class="st3" d="M7.6,1.3L6,6l1.8-4.7C7.7,1.4,7.7,1.3,7.6,1.3z"/>
        <g class="st4">
		<path class="st3" d="M6,1v5l1.6-4.7C7.1,1.1,6.5,1,6,1z"/>
	</g>
        <g>
		<circle class="st3" cx="4" cy="3.7" r="0.3"/>
            <circle class="st3" cx="8.7" cy="4.5" r="0.3"/>
	</g>
</g>
    <g id="Layer_1">
	<g>
		<path class="st5" d="M12,0v12H0V0H12z M6.3,11.6L6.3,11.6L6.3,11.6L6.3,11.6L6.3,11.6L6.3,11.6c-0.1,0-0.1,0-0.1,0l0,0l0,0.2l0,0
			l0,0l0.1,0l0,0l0,0l0.1,0l0,0l0,0L6.3,11.6C6.3,11.6,6.3,11.6,6.3,11.6z M6.4,11.6L6.4,11.6L6.4,11.6l-0.1,0.1l0,0l0,0.2l0,0l0,0
			l0.1,0c0,0,0,0,0,0l0,0L6.4,11.6C6.4,11.6,6.4,11.6,6.4,11.6z M6.1,11.6C6.1,11.6,6.1,11.6,6.1,11.6L6.1,11.6l0,0.3c0,0,0,0,0,0
			l0,0l0.1,0l0,0l0,0L6.1,11.6L6.1,11.6L6.1,11.6C6.2,11.6,6.1,11.6,6.1,11.6z"/>
        <path class="st6" d="M6,1c2.8,0,5,2.2,5,5s-2.2,5-5,5S1,8.8,1,6S3.2,1,6,1z M2.1,6.9c0.4,1.5,1.6,2.7,3.1,3
			C5.1,8.6,4.7,7.8,4.2,7.4C3.6,7,2.9,6.8,2.1,6.9L2.1,6.9z M7.8,7.4c-0.5,0.4-1,1.2-1.1,2.5c1.5-0.3,2.8-1.5,3.1-3
			C9.1,6.8,8.4,7,7.8,7.4L7.8,7.4z M6,2C4.1,2,2.4,3.4,2.1,5.3l0,0.1l1.1-0.2C3.4,5.1,3.7,4.9,4,4.7l0.2-0.2C4.7,4.3,5.3,4,6,4
			c0.7,0,1.3,0.3,1.7,0.5L8,4.7c0.3,0.2,0.5,0.3,0.8,0.4l0.1,0L10,5.4C9.6,3.4,8,2,6,2z"/>
	</g>
</g>
</svg>
