<?xml version="1.0" encoding="utf-8"?>
<!-- Generator: Adobe Illustrator 27.0.0, SVG Export Plug-In . SVG Version: 6.00 Build 0)  -->
<svg version="1.1" xmlns="http://www.w3.org/2000/svg" x="0px" y="0px"
	 viewBox="0 0 12 12" style="enable-background:new 0 0 12 12;" xml:space="preserve">
<style type="text/css">
	.st0{fill:#060522;}
	.st1{display:none;fill:#3A682E;}
	.st2{fill:#294C22;}
	.st3{display:none;fill:#2BD4BD;}
	.st4{fill:#2BD4BD;}
	.st5{opacity:0.6;}
	.st6{fill:none;stroke:#2BD4BD;stroke-width:0.15;stroke-miterlimit:10;}
	.st7{fill:none;}
	.st8{fill-rule:evenodd;clip-rule:evenodd;fill:#3ABFF8;}
</style>
    <g id="Layer_2">
	<path class="st0"
          d="M5.7,1.6C3.1,1.6,1,3.6,1,6.2c0,2.5,2.1,4.6,4.6,4.6c2.6,0,4.6-2.1,4.6-4.6C10.3,3.6,8.2,1.6,5.7,1.6z"/>
        <path class="st1" d="M10.6,6C10.6,6,10.6,6,10.6,6C10.6,6,10.6,6,10.6,6l-0.3,0V5.2h0.2c0,0,0,0,0,0h-0.2V4.5c0,0,0-0.1,0-0.1v0.8
		H9.5V4.3h0.8c0,0,0,0,0,0H9.5V3.4h0.4c0,0,0,0,0,0H9.5V3c0,0,0,0,0,0v0.5H8.6V2.6h0.5c0,0,0,0,0,0H8.6V2.2c0,0,0,0,0,0v0.4H7.7V1.8
		c0,0,0,0,0,0v0.8H6.9V1.7h0.8c0,0-0.1,0-0.1,0H6.9V1.5c0,0,0,0,0,0v0.2H6V1.4c0,0,0,0,0,0c0,0,0,0,0,0v0.3H5.1V1.5c0,0,0,0,0,0v0.2
		H4.4c0,0-0.1,0-0.1,0h0.8v0.8H4.3V1.7c0,0,0,0,0,0v0.8H3.4V2.2c0,0,0,0,0,0v0.3H3c0,0,0,0,0,0h0.5v0.8H2.5V2.9c0,0,0,0,0,0v0.4H2.2
		c0,0,0,0,0,0h0.4v0.8H1.7c0,0,0,0,0,0h0.8v0.8H1.7V4.4c0,0,0,0.1,0,0.1v0.7H1.5c0,0,0,0,0,0h0.2V6H1.4c0,0,0,0,0,0c0,0,0,0,0,0h0.3
		v0.8H1.5c0,0,0,0,0,0h0.2v0.7c0,0,0,0.1,0,0.1V6.9h0.8v0.8H1.7c0,0,0,0,0,0h0.8v0.8H2.2c0,0,0,0,0,0h0.3V9c0,0,0,0,0,0V8.6h0.8v0.8
		H2.9c0,0,0,0,0,0h0.4v0.3c0,0,0,0,0,0V9.5h0.8v0.8c0,0,0,0,0,0V9.5h0.8v0.8H4.3c0,0,0.1,0,0.1,0h0.7v0.2c0,0,0,0,0,0v-0.2H6v0.3
		c0,0,0,0,0,0c0,0,0,0,0,0v-0.3h0.8v0.2c0,0,0,0,0,0v-0.2h0.7c0,0,0.1,0,0.1,0H6.9V9.5h0.8v0.8c0,0,0,0,0,0V9.5h0.8v0.3c0,0,0,0,0,0
		V9.5H9c0,0,0,0,0,0H8.6V8.6h0.8v0.5c0,0,0,0,0,0V8.6h0.3c0,0,0,0,0,0H9.5V7.8h0.8c0,0,0,0,0,0H9.5V6.9h0.8v0.8c0,0,0-0.1,0-0.1V6.9
		h0.2c0,0,0,0,0,0h-0.2V6L10.6,6L10.6,6z M2.5,6.9H1.7V6h0.8V6.9z M2.5,6H1.7V5.2h0.8V6z M3.4,8.6H2.5V7.8h0.8V8.6z M3.4,7.7H2.5
		V6.9h0.8V7.7z M3.4,6.9H2.5V6h0.8V6.9z M3.4,6H2.5V5.2h0.8V6z M3.4,5.1H2.5V4.3h0.8V5.1z M3.4,4.3H2.5V3.4h0.8V4.3z M4.2,9.5H3.4
		V8.6h0.8V9.5z M4.2,8.6H3.4V7.8h0.8V8.6z M4.2,7.7H3.4V6.9h0.8V7.7z M4.2,6.9H3.4V6h0.8V6.9z M4.2,6H3.4V5.2h0.8V6z M4.2,5.1H3.4
		V4.3h0.8V5.1z M4.2,4.3H3.4V3.4h0.8V4.3z M4.2,3.4H3.4V2.6h0.8V3.4z M5.1,9.5H4.3V8.6h0.8V9.5z M5.1,8.6H4.3V7.8h0.8V8.6z M5.1,7.7
		H4.3V6.9h0.8V7.7z M5.1,6.9H4.3V6h0.8V6.9z M5.1,6H4.3V5.2h0.8V6z M5.1,5.1H4.3V4.3h0.8V5.1z M5.1,4.3H4.3V3.4h0.8V4.3z M5.1,3.4
		H4.3V2.6h0.8V3.4z M6,10.3H5.1V9.5H6V10.3z M6,9.5H5.1V8.6H6V9.5z M6,8.6H5.1V7.8H6V8.6z M6,7.7H5.1V6.9H6V7.7z M6,6.9H5.1V6H6V6.9
		z M6,6H5.1V5.2H6V6z M6,5.1H5.1V4.3H6V5.1z M6,4.3H5.1V3.4H6V4.3z M6,3.4H5.1V2.6H6V3.4z M6,2.5H5.1V1.7H6V2.5z M6.8,10.3H6V9.5
		h0.8V10.3z M6.8,9.5H6V8.6h0.8V9.5z M6.8,8.6H6V7.8h0.8V8.6z M6.8,7.7H6V6.9h0.8V7.7z M6.8,6.9H6V6h0.8V6.9z M6.8,6H6V5.2h0.8V6z
		 M6.8,5.1H6V4.3h0.8V5.1z M6.8,4.3H6V3.4h0.8V4.3z M6.8,3.4H6V2.6h0.8V3.4z M6.8,2.5H6V1.7h0.8V2.5z M7.7,9.5H6.9V8.6h0.8V9.5z
		 M7.7,8.6H6.9V7.8h0.8V8.6z M7.7,7.7H6.9V6.9h0.8V7.7z M7.7,6.9H6.9V6h0.8V6.9z M7.7,6H6.9V5.2h0.8V6z M7.7,5.1H6.9V4.3h0.8V5.1z
		 M7.7,4.3H6.9V3.4h0.8V4.3z M7.7,3.4H6.9V2.6h0.8V3.4z M8.6,9.5H7.7V8.6h0.8V9.5z M8.6,8.6H7.7V7.8h0.8V8.6z M8.6,7.7H7.7V6.9h0.8
		V7.7z M8.6,6.9H7.7V6h0.8V6.9z M8.6,6H7.7V5.2h0.8V6z M8.6,5.1H7.7V4.3h0.8V5.1z M8.6,4.3H7.7V3.4h0.8V4.3z M8.6,3.4H7.7V2.6h0.8
		V3.4z M9.4,8.6H8.6V7.8h0.8V8.6z M9.4,7.7H8.6V6.9h0.8V7.7z M9.4,6.9H8.6V6h0.8V6.9z M9.4,6H8.6V5.2h0.8V6z M9.4,5.1H8.6V4.3h0.8
		V5.1z M9.4,4.3H8.6V3.4h0.8V4.3z M10.3,6.9H9.5V6h0.8V6.9z M10.3,6H9.5V5.2h0.8V6z"/>
        <g>
		<path class="st2" d="M5.6,6c0,0.2,0.2,0.3,0.4,0.4V6H5.6z"/>
            <path class="st2" d="M5.6,6H6V5.6C5.8,5.7,5.6,5.8,5.6,6z"/>
            <path class="st2" d="M6,6v0.4c0.2,0,0.3-0.2,0.4-0.4H6z"/>
            <path class="st2" d="M6,5.6V6h0.4C6.4,5.8,6.2,5.7,6,5.6z"/>
	</g>
        <path class="st3" d="M10.6,6H9.8c0-2.1-1.7-3.8-3.8-3.8V1.4c0,0,0,0,0,0c0,0,0,0,0,0v0.8C3.9,2.2,2.2,3.9,2.2,6H1.4c0,0,0,0,0,0
		c0,0,0,0,0,0h0.8c0,2.1,1.7,3.8,3.8,3.8v0.8c0,0,0,0,0,0c0,0,0,0,0,0V9.8c2.1,0,3.8-1.7,3.8-3.8L10.6,6C10.6,6,10.6,6,10.6,6
		C10.6,6,10.6,6,10.6,6z M6,9.8C3.9,9.8,2.2,8.1,2.2,6h0.9c0,1.6,1.3,2.8,2.9,2.9V9.8z M6,8.9C4.4,8.8,3.2,7.6,3.2,6H4
		c0,1.1,0.9,2,2,2V8.9z M6,8C4.9,7.9,4.1,7.1,4,6h0.8c0,0.6,0.5,1.1,1.2,1.2L6,8L6,8z M6,7.2C5.4,7.1,4.9,6.6,4.9,6h0.7
		c0,0.2,0.2,0.4,0.4,0.4V7.2z M6,6.4C5.8,6.4,5.6,6.2,5.6,6H6V6.4z M6,6H5.6c0-0.2,0.2-0.3,0.4-0.4V6z M6,5.6C5.7,5.6,5.6,5.8,5.6,6
		H4.9c0-0.6,0.5-1.1,1.1-1.1V5.6z M6,4.8C5.3,4.8,4.8,5.4,4.8,6H4c0-1,0.9-1.9,1.9-1.9V4.8L6,4.8z M6,4C4.9,4,4,4.9,4,6H3.2
		c0-1.5,1.3-2.8,2.8-2.8L6,4L6,4z M6,3.1C4.4,3.1,3.1,4.4,3.1,6H2.2c0-2.1,1.7-3.7,3.7-3.7V3.1z M6,3.2c1.5,0,2.8,1.3,2.8,2.8H8
		c0-1.1-0.9-2-2-2L6,3.2L6,3.2z M6,4.1c1.1,0,1.9,0.9,1.9,1.9H7.2c0-0.6-0.5-1.1-1.2-1.2L6,4.1L6,4.1z M6,4.9c0.6,0,1.1,0.5,1.1,1.1
		H6.4c0-0.2-0.2-0.4-0.4-0.4L6,4.9L6,4.9z M6,5.6c0.2,0,0.3,0.2,0.4,0.4H6V5.6z M6,6h0.4c0,0.2-0.2,0.3-0.4,0.4V6L6,6z M6,6.5
		c0.2,0,0.4-0.2,0.4-0.4h0.7c0,0.6-0.5,1.1-1.1,1.1L6,6.5L6,6.5z M6,7.2c0.6,0,1.1-0.5,1.2-1.2h0.8c0,1-0.9,1.9-1.9,1.9V7.2z M6,8
		c1.1,0,2-0.9,2-2h0.8c0,1.5-1.3,2.8-2.8,2.8L6,8L6,8z M6,9.8V8.9c1.6,0,2.9-1.3,2.9-2.9h0.9C9.7,8.1,8.1,9.8,6,9.8z M8.9,6
		c0-1.6-1.3-2.8-2.9-2.9V2.3c2.1,0,3.7,1.7,3.7,3.7H8.9z"/>
        <path class="st4" d="M7.5,1.6L6,6l1.7-4.3C7.6,1.7,7.5,1.7,7.5,1.6z"/>
        <g class="st5">
		<path class="st4" d="M6,1.4V6l1.5-4.4C7,1.5,6.5,1.4,6,1.4z"/>
	</g>
        <g>
		<circle class="st4" cx="8.8" cy="4.1" r="0.4"/>
            <circle class="st4" cx="3.8" cy="3.4" r="0.4"/>
	</g>
        <circle class="st6" cx="6" cy="6" r="2.6"/>
        <circle class="st6" cx="6" cy="6" r="3.4"/>
</g>
    <g id="Layer_1">
	<g>
		<path class="st7" d="M12,0v12H0V0H12z M6.3,11.6L6.3,11.6L6.3,11.6L6.3,11.6L6.3,11.6L6.3,11.6c-0.1,0-0.1,0-0.1,0l0,0l0,0.2l0,0
			l0,0l0.1,0l0,0l0,0l0.1,0l0,0l0,0L6.3,11.6C6.3,11.6,6.3,11.6,6.3,11.6z M6.4,11.6L6.4,11.6L6.4,11.6l-0.1,0.1l0,0l0,0.2l0,0l0,0
			l0.1,0c0,0,0,0,0,0l0,0L6.4,11.6C6.4,11.6,6.4,11.6,6.4,11.6z M6.1,11.6C6.1,11.6,6.1,11.6,6.1,11.6L6.1,11.6l0,0.3c0,0,0,0,0,0
			l0,0l0.1,0l0,0l0,0L6.1,11.6L6.1,11.6L6.1,11.6C6.2,11.6,6.1,11.6,6.1,11.6z"/>
        <path class="st8" d="M6,1c2.8,0,5,2.2,5,5s-2.2,5-5,5S1,8.8,1,6S3.2,1,6,1z M2.1,6.9c0.4,1.5,1.6,2.7,3.1,3
			C5.1,8.6,4.7,7.8,4.2,7.4C3.6,7,2.9,6.8,2.1,6.9L2.1,6.9z M7.8,7.4c-0.5,0.4-1,1.2-1.1,2.5c1.5-0.3,2.8-1.5,3.1-3
			C9.1,6.8,8.4,7,7.8,7.4L7.8,7.4z M6,2C4.1,2,2.4,3.4,2.1,5.3l0,0.1l1.1-0.2C3.4,5.1,3.7,4.9,4,4.7l0.2-0.2C4.7,4.3,5.3,4,6,4
			c0.7,0,1.3,0.3,1.7,0.5L8,4.7c0.3,0.2,0.5,0.3,0.8,0.4l0.1,0L10,5.4C9.6,3.4,8,2,6,2z"/>
	</g>
</g>
</svg>
